<svg xmlns="http://www.w3.org/2000/svg" xml:space="preserve" width="2.66666in"
     height="2.66666in"
     version="1.1"
     style="shape-rendering:geometricPrecision; text-rendering:geometricPrecision; image-rendering:optimizeQuality; fill-rule:evenodd; clip-rule:evenodd"
     viewBox="0 0 2666.66 2666.66">
<defs>
<style type="text/css">
   
    .fil0 {fill:#FF2E93}
    .fil1 {fill:white}
   
  </style>
</defs>
    <g id="Layer_x0020_1">
        <circle class="fil0" cx="1333.33" cy="1333.33" r="1333.33" id="id_111" style="fill: rgb(207, 7, 0);"></circle>
        <path class="fil1"
              d="M1086.78 1366.28c-4.89,0 -9.61,-1.79 -13.28,-5.04l-511.66 -454.41c-3.31,-2.94 -5.55,-6.92 -6.37,-11.28l-73.43 -391.86c-2.58,-13.81 9.54,-25.93 23.34,-23.35l392.02 73.59c4.36,0.82 8.32,3.07 11.26,6.37l439.64 495.04c6.72,7.57 6.72,18.98 0,26.56l-246.59 277.64 -14.94 6.74z"
              id="id_112" style="fill: rgb(0, 0, 0);"></path>
        <path class="fil1"
              d="M1450.66 1689.46c-4.74,0 -9.49,-1.68 -13.28,-5.04l-117.32 -104.2c-8.96,-7.94 -8.96,-21.97 0,-29.92l246.58 -218.97c8.15,-7.24 20.83,-6.65 28.24,1.67l91.2 102.71c7.03,7.9 6.67,19.94 -0.82,27.43l-220.46 220.47c-3.88,3.87 -9.02,5.84 -14.15,5.84z"
              id="id_113" style="fill: rgb(0, 0, 0);"></path>
        <path class="fil1"
              d="M1448.37 1859.52c-11.67,0 -22.62,-4.53 -30.86,-12.75l-55.38 -55.38c-17,-17.01 -17.04,-44.67 0.02,-61.7l369.21 -369.23c16.44,-16.43 45.26,-16.46 61.7,0l55.39 55.37c16.99,17.03 16.99,44.69 0,61.7l-369.23 369.23c-8.22,8.23 -19.16,12.76 -30.84,12.76z"
              id="id_114" style="fill: rgb(0, 0, 0);"></path>
        <path class="fil1"
              d="M1897.4 2047.72c-5.31,0 -10.39,-2.11 -14.15,-5.86l-69.99 -70 156.91 -156.9 69.99 69.99c7.81,7.83 7.81,20.48 0,28.31l-128.61 128.61c-3.76,3.74 -8.84,5.86 -14.15,5.86zm-112.44 -104.15l-44.42 -44.42 156.91 -156.9 44.43 44.42 -156.91 156.9zm-72.71 -72.72l-44.43 -44.43 156.9 -156.89 44.43 44.43 -156.91 156.9zm-72.72 -72.72l-69.99 -69.99c-7.82,-7.82 -7.82,-20.49 0,-28.3l128.6 -128.6c7.82,-7.82 20.49,-7.82 28.29,0l70 69.99 -156.9 156.9z"
              id="id_115" style="fill: rgb(0, 0, 0);"></path>
        <path class="fil1"
              d="M1898.96 2186.67c-28.39,0 -45.6,-24.68 -69.28,-48.37 -19.61,-19.64 -19.59,-51.56 0,-71.17l235.76 -235.76c18.99,-18.96 52.21,-18.93 71.17,0 22.1,22.08 75.84,62.72 33.67,104.86l-235.75 235.76c-9.47,9.46 -22.12,14.68 -35.56,14.68z"
              id="id_116" style="fill: rgb(0, 0, 0);"></path>
        <path class="fil1"
              d="M1216.04 1689.46c-5.12,0 -10.25,-1.98 -14.14,-5.87l-220.47 -220.46c-7.48,-7.49 -7.85,-19.51 -0.82,-27.43l777.4 -875.39c2.96,-3.31 6.92,-5.55 11.28,-6.37l392.03 -73.59c13.81,-2.59 25.93,9.51 23.33,23.34l-73.42 391.87c-0.82,4.36 -3.06,8.33 -6.37,11.28l-875.54 777.57c-3.8,3.37 -8.54,5.06 -13.28,5.06zm-110.24 -110.25c-17.63,0 -26.8,-21.52 -14.14,-34.16l496.15 -496.15c18.63,-18.63 46.93,9.67 28.3,28.28l-496.17 496.17c-3.91,3.91 -9.03,5.86 -14.14,5.86z"
              id="id_117" style="fill: rgb(0, 0, 0);"></path>
        <path class="fil1"
              d="M1218.31 1859.52c-11.67,0 -22.63,-4.53 -30.85,-12.76l-369.22 -369.21c-17,-17.03 -17,-44.69 0,-61.7l55.39 -55.39c16.46,-16.44 45.25,-16.44 61.7,0l369.22 369.23c17.01,17 17.01,44.69 0,61.68l-55.39 55.39c-8.21,8.23 -19.17,12.76 -30.85,12.76z"
              id="id_118" style="fill: rgb(0, 0, 0);"></path>
        <path class="fil1"
              d="M769.28 2047.72c-5.31,0 -10.39,-2.11 -14.14,-5.86l-128.6 -128.61c-7.82,-7.82 -7.82,-20.49 0,-28.29l70 -70 156.89 156.9 -70.02 70.02c-3.75,3.73 -8.83,5.85 -14.14,5.85zm-44.46 -261.04l44.43 -44.43 156.89 156.9 -44.43 44.43 -156.89 -156.89zm72.72 -72.72l44.43 -44.43 156.89 156.9 -44.43 44.43 -156.89 -156.89zm72.72 -72.72l69.99 -69.99c7.82,-7.82 20.47,-7.82 28.28,0l128.6 128.6c7.81,7.83 7.81,20.48 0,28.31l-69.98 69.98 -156.89 -156.9z"
              id="id_119" style="fill: rgb(0, 0, 0);"></path>
        <path class="fil1"
              d="M767.74 2186.67c-13.46,0 -26.1,-5.2 -35.58,-14.69l-235.76 -235.76c-41.54,-41.54 9.8,-80.98 33.68,-104.85 18.96,-18.96 52.2,-18.96 71.16,0l235.76 235.76c42.13,42.14 -11.54,82.77 -33.67,104.87 -9.49,9.47 -22.13,14.68 -35.59,14.68z"
              id="id_120" style="fill: rgb(0, 0, 0);"></path>
</g>
</svg>