<svg fill="blue" version="1.1" id="Capa_1" xmlns="http://www.w3.org/2000/svg" x="0px" y="0px"
	 viewBox="0 0 299.124 299.124" style="enable-background:new 0 0 299.124 299.124;" xml:space="preserve">
<g>
	<path d="M296.655,142.104c-2.659-3.576-66.046-87.574-147.093-87.574c-81.048,0-144.434,83.998-147.093,87.574
		c-3.292,4.427-3.292,10.489,0,14.916c2.659,3.576,66.045,87.573,147.093,87.573c81.047,0,144.434-83.997,147.093-87.573
		C299.947,152.594,299.947,146.531,296.655,142.104z M149.562,199.616c-27.6,0-50.054-22.454-50.054-50.054
		c0-27.601,22.454-50.055,50.054-50.055c27.601,0,50.055,22.454,50.055,50.055C199.617,177.162,177.162,199.616,149.562,199.616z"/>
	<circle cx="149.562" cy="149.562" r="21.261"/>
</g>
	<g>
</g>
	<g>
</g>
	<g>
</g>
	<g>
</g>
	<g>
</g>
	<g>
</g>
	<g>
</g>
	<g>
</g>
	<g>
</g>
	<g>
</g>
	<g>
</g>
	<g>
</g>
	<g>
</g>
	<g>
</g>
	<g>
</g>
</svg>
