<!-- Uploaded to: SVG Repo, www.svgrepo.com, Transformed by: SVG Repo Mixer Tools -->
<svg width="800px" height="800px" viewBox="-2.4 -2.4 28.80 28.80" fill="none" xmlns="http://www.w3.org/2000/svg">

    <g id="SVGRepo_bgCarrier" stroke-width="0">

        <rect x="-2.4" y="-2.4" width="28.80" height="28.80" rx="14.4" fill="#1667ed"/>

    </g>

    <g id="SVGRepo_tracerCarrier" stroke-linecap="round" stroke-linejoin="round"/>

    <g id="SVGRepo_iconCarrier">
        <path fill-rule="evenodd" clip-rule="evenodd"
              d="M22 12.0002C20.2531 15.5764 15.8775 19 11.9998 19C8.12201 19 3.74646 15.5764 2 11.9998"
              stroke="#000000" stroke-width="2" stroke-linecap="round" stroke-linejoin="round"/>
        <path fill-rule="evenodd" clip-rule="evenodd"
              d="M22 12.0002C20.2531 8.42398 15.8782 5 12.0005 5C8.1227 5 3.74646 8.42314 2 11.9998" stroke="#000000"
              stroke-width="2" stroke-linecap="round" stroke-linejoin="round"/>
        <path d="M15 12C15 13.6569 13.6569 15 12 15C10.3431 15 9 13.6569 9 12C9 10.3431 10.3431 9 12 9C13.6569 9 15 10.3431 15 12Z"
              stroke="#000000" stroke-width="2" stroke-linecap="round" stroke-linejoin="round"/>
    </g>

</svg>