<!-- Uploaded to: SVG Repo, www.svgrepo.com, Transformed by: SVG Repo Mixer Tools -->
<svg height="800px" width="800px" version="1.1" id="_x32_"
     xmlns="http://www.w3.org/2000/svg" viewBox="-51.2 -51.2 614.40 614.40" xml:space="preserve" fill="#000000">

<g id="SVGRepo_bgCarrier" stroke-width="0">

<rect x="-51.2" y="-51.2" width="614.40" height="614.40" rx="307.2" fill="#aa8617"/>

</g>

    <g id="SVGRepo_tracerCarrier" stroke-linecap="round" stroke-linejoin="round"/>

    <g id="SVGRepo_iconCarrier"> <style type="text/css"> .st0{fill:#000000;} </style>
        <g> <polygon class="st0"
                     points="490.292,206.918 490.292,223.389 470.426,222.2 470.426,205.159 445.158,202.911 445.158,220.692 421.903,219.321 421.903,200.833 392.126,198.184 392.126,217.541 364.55,215.884 364.55,195.745 328.973,192.567 328.973,246.543 512,246.543 512,208.847 "/>
            <polygon class="st0" points="328.973,367.491 512,339.487 512,255.401 328.973,255.401 "/>
            <polygon class="st0"
                     points="147.474,220.489 119.871,222.139 119.871,202.782 90.104,205.438 90.104,223.899 66.845,225.298 66.845,207.489 41.595,209.737 41.595,226.805 21.711,227.988 21.711,211.517 0,213.445 0,251.121 183.048,251.121 183.048,197.165 147.474,200.323 "/>
            <polygon class="st0" points="0,344.085 183.048,372.076 183.048,260.006 0,260.006 "/>
            <polygon class="st0"
                     points="294.164,151.59 270.14,151.59 270.14,130.385 241.871,130.385 241.871,151.59 217.844,151.59 217.844,130.385 189.575,130.385 189.575,179.858 198.058,179.858 217.844,179.858 241.871,179.858 270.14,179.858 294.164,179.858 322.435,179.858 322.435,151.59 322.435,130.385 294.164,130.385 "/>
            <path class="st0"
                  d="M195.759,372.076l17.517,4.333c28.062,6.941,57.393,6.941,85.455,0l17.521-4.333V192.574H195.759V372.076z M245.402,223.722h21.202v40.277h-21.202V223.722z"/> </g> </g>

</svg>