<?xml version="1.0" encoding="iso-8859-1"?>
<!-- Generator: Adobe Illustrator 19.0.0, SVG Export Plug-In . SVG Version: 6.00 Build 0)  -->
<svg version="1.1" id="Layer_1" xmlns="http://www.w3.org/2000/svg" x="0px" y="0px"
	 viewBox="0 0 512 512" style="enable-background:new 0 0 512 512;" xml:space="preserve">
<g>
	<g>
		<path d="M469.144,155.111L377.767,7.891C374.722,2.984,369.357,0,363.582,0H148.418c-5.774,0-11.139,2.984-14.186,7.891
			l-91.376,147.22c-2.483,4-3.161,8.864-1.868,13.391l94.683,331.389c2.048,7.168,8.599,12.109,16.053,12.109h208.552
			c7.454,0,14.004-4.942,16.052-12.109l94.683-331.389C472.305,163.975,471.628,159.112,469.144,155.111z M322.504,200.348h-49.809
			v149.789c0,8.99-6.909,16.726-15.889,17.149c-9.588,0.451-17.503-7.188-17.503-16.677V200.348h-50.365
			c-9.489,0-17.128-7.915-16.677-17.503c0.423-8.98,8.159-15.889,17.149-15.889h49.893v-49.615c0-8.99,6.909-16.726,15.889-17.149
			c9.588-0.451,17.503,7.188,17.503,16.677v50.087h49.337c8.99,0,16.726,6.909,17.149,15.889
			C339.632,192.433,331.993,200.348,322.504,200.348z"/>
	</g>
</g>
	<g>
</g>
	<g>
</g>
	<g>
</g>
	<g>
</g>
	<g>
</g>
	<g>
</g>
	<g>
</g>
	<g>
</g>
	<g>
</g>
	<g>
</g>
	<g>
</g>
	<g>
</g>
	<g>
</g>
	<g>
</g>
	<g>
</g>
</svg>
