<!DOCTYPE svg PUBLIC "-//W3C//DTD SVG 1.1//EN" "http://www.w3.org/Graphics/SVG/1.1/DTD/svg11.dtd">
<!-- Uploaded to: SVG Repo, www.svgrepo.com, Transformed by: SVG Repo Mixer Tools -->
<svg fill="#ff0000" width="800px" height="800px" viewBox="-310 -310 1620.00 1620.00"
     version="1.1" xmlns="http://www.w3.org/2000/svg" enable-background="new 0 0 1000 1000"
     xml:space="preserve">

<g id="SVGRepo_bgCarrier" stroke-width="0" transform="translate(0,0), scale(1)">

<rect x="-310" y="-310" width="1620.00" height="1620.00" rx="810" fill="#000000" strokewidth="0"/>

</g>

    <g id="SVGRepo_tracerCarrier" stroke-linecap="round" stroke-linejoin="round"/>

    <g id="SVGRepo_iconCarrier"> <g> <g transform="translate(0.000000,511.000000) scale(0.100000,-0.100000)"> <path
            d="M9336.9,4935.4c-208.7-106.5-366.3-342.9-366.3-551.6c0-44.7-121.4-176.8-585.7-641.1l-585.7-585.7l-372.7,372.7c-308.8,308.8-372.7,383.4-372.7,432.4c0,187.4-225.8,308.8-402.6,219.4c-213-110.8-172.5-438.8,59.7-502.7c57.5-14.9,155.5-98,374.8-319.5l298.2-298.2l-176.8-176.8l-174.6-174.7v-285.4v-285.4l283.3,14.9l281.2,14.9l170.4,168.3l170.4,170.4l336.5-336.5c183.2-183.2,334.4-349.3,334.4-366.3c0-57.5,83.1-168.3,151.2-204.5c78.8-40.5,204.5-31.9,283.3,19.2c74.5,49,125.7,174.7,108.6,264.1c-19.2,108.6-129.9,217.2-234.3,234.3c-76.7,10.6-127.8,53.2-475,398.3l-387.6,385.5l590,590c519.7,519.7,600.6,592.1,658.1,592.1c251.3,0,543.1,264.1,592.1,536.7c19.2,110.7-17.1,232.2-93.7,304.6c-55.4,51.1-85.2,63.9-198.1,70.3C9488.1,5001.4,9454.1,4992.9,9336.9,4935.4z M7647.9,2664.9c-34.1-200.2-27.7-191.7-193.8-219.4c-83.1-12.8-153.4-21.3-155.5-19.2c-8.5,8.5,46.9,293.9,57.5,306.7c10.6,8.5,300.3,68.2,308.8,61.8C7669.2,2792.7,7660.7,2735.2,7647.9,2664.9z"/>
        <path d="M244.5,4914.1c-38.3-21.3-85.2-66-106.5-98c-55.4-85.2-49-270.5,10.6-391.9c98-204.5,342.9-383.4,526.1-383.4c83.1,0,100.1-14.9,677.3-592.1l590-590l-368.5-368.5c-285.4-285.4-379.1-366.3-421.7-366.3c-76.7,0-193.8-83.1-238.5-170.4c-66-129.9-10.6-285.4,123.5-349.3c151.2-72.4,304.6-12.8,372.7,142.7c25.6,57.5,147,196,338.6,387.6l300.3,298.2l166.1-166.1l164-164h291.8h289.7l-10.6,272.6l-10.6,270.5l-168.3,170.4l-168.3,170.4l347.2,347.2c189.6,189.6,362.1,345,381.3,345c59.6,0,164,106.5,187.4,191.7c49,178.9-78.8,340.8-272.6,340.8c-80.9,0-106.5-10.6-176.8-83.1c-63.9-63.9-83.1-100.1-83.1-153.3c0-66-38.3-110.7-394-466.4l-394-394L1614,3697.9c-581.5,581.5-581.5,581.5-594.2,688C972.9,4769.2,517.2,5080.2,244.5,4914.1z M2502.2,2696.9l119.3-25.5l23.4-119.3c12.8-66,29.8-136.3,34.1-155.5c6.4-23.4,0-38.3-19.2-38.3c-68.2,0-283.3,51.1-296.1,70.3c-6.4,12.8-19.2,66-27.7,119.3c-6.4,53.2-17,115-23.4,136.3C2299.8,2728.8,2331.8,2731,2502.2,2696.9z"/>
        <path d="M5839.7,1516.9L4955.8,633L4106,1480.7l-847.7,845.6l10.7-270.5l10.6-272.6h-291.8h-289.7l851.9-851.9L4402,79.3L2568.2-1756.7L734.4-3594.7L564-3871.6C385.1-4163.4,189.2-4534,165.7-4632c-6.4-32-4.3-61.8,6.4-70.3c59.6-36.2,647.5,264.1,1024.5,523.9c147,100.1,749.7,692.2,3130.9,3075.5l2949.9,2949.8l-279-12.8l-281.1-14.9l12.8,291.8c4.3,159.7,6.4,289.7,2.1,289.7C6727.8,2400.8,6325.3,2002.5,5839.7,1516.9z"/>
        <path d="M5556.4-534.1l-270.5-270.5L6983.4-2500C8813-4323.1,8700.1-4223,9256-4542.5c232.1-134.2,453.7-234.3,513.3-234.3c76.7,0,10.6,183.2-217.3,592.1c-276.9,498.4-238.5,455.8-2027.6,2247C6604.3-1015.4,5846.1-261.5,5839.7-261.5S5705.5-382.9,5556.4-534.1z"/> </g> </g> </g>

</svg>